<svg width="25" height="24" viewBox="0 0 25 24" fill="none" xmlns="http://www.w3.org/2000/svg">
<path d="M22.8262 6.26086H19.3805L17.3914 4.17389H9.78272V7.30432H6.52185V10.4348H3.26099V20.8695C3.26099 22.0174 4.23925 22.9565 5.43491 22.9565H22.8262C24.0219 22.9565 25.0001 22.0174 25.0001 20.8695V8.34778C25.0001 7.19999 24.0219 6.26086 22.8262 6.26086ZM14.1305 19.8261C11.1305 19.8261 8.69573 17.4886 8.69573 14.6086C8.69573 11.7286 11.1305 9.39129 14.1305 9.39129C17.1305 9.39129 19.5653 11.7287 19.5653 14.6087C19.5653 17.4887 17.1305 19.8261 14.1305 19.8261Z" fill="black"/>
<path d="M3.26087 9.39129H5.4348V6.26086H8.69566V4.17389H5.4348V1.04346H3.26087V4.17389H0V6.26086H3.26087V9.39129Z" fill="black"/>
<path d="M14.1304 11.2696C12.2065 11.2696 10.6521 12.7618 10.6521 14.6087C10.6521 16.4557 12.2065 17.9479 14.1304 17.9479C16.0543 17.9479 17.6087 16.4557 17.6087 14.6087C17.6087 12.7618 16.0543 11.2696 14.1304 11.2696Z" fill="black"/>
</svg>
