<svg width="8" height="8" viewBox="0 0 8 8" fill="none" xmlns="http://www.w3.org/2000/svg">
<path d="M4 0C1.79446 0 0 1.79431 0 4C0 6.20569 1.79446 8 4 8C6.20554 8 8 6.20569 8 4C8 1.79431 6.20554 0 4 0ZM4 7.69231C1.96415 7.69231 0.307692 6.03585 0.307692 4C0.307692 1.96415 1.96415 0.307692 4 0.307692C6.03585 0.307692 7.69231 1.96415 7.69231 4C7.69231 6.03585 6.03585 7.69231 4 7.69231Z" fill="black"/>
<path d="M5.49307 2.50679C5.43291 2.44663 5.33568 2.44663 5.27553 2.50679L3.99968 3.78263L2.72384 2.50679C2.66368 2.44663 2.56645 2.44663 2.5063 2.50679C2.44614 2.56694 2.44614 2.66417 2.5063 2.72432L3.78214 4.00017L2.5063 5.27602C2.44614 5.33617 2.44614 5.4334 2.5063 5.49355C2.5363 5.52355 2.57568 5.53863 2.61507 5.53863C2.65445 5.53863 2.69384 5.52355 2.72384 5.49355L3.99968 4.21771L5.27553 5.49355C5.30553 5.52355 5.34491 5.53863 5.3843 5.53863C5.42368 5.53863 5.46307 5.52355 5.49307 5.49355C5.55322 5.4334 5.55322 5.33617 5.49307 5.27602L4.21722 4.00017L5.49307 2.72432C5.55322 2.66417 5.55322 2.56694 5.49307 2.50679Z" fill="black"/>
</svg>
