<svg width="318" height="331" viewBox="0 0 318 331" fill="none" xmlns="http://www.w3.org/2000/svg">
<g clip-path="url(#clip0)">
<path d="M192.474 18.5708L26.7998 57.4365L75.9154 307.711L241.59 268.845L192.474 18.5708Z" fill="#E0E0E0"/>
<g opacity="0.5">
<path opacity="0.5" d="M190.507 23.459L30.4316 61.0112L77.887 302.826L237.962 265.274L190.507 23.459Z" fill="url(#paint0_linear)"/>
</g>
<path d="M188.817 25.7171L32.8169 62.3132L79.2238 298.785L235.224 262.189L188.817 25.7171Z" fill="#FAFAFA"/>
<path d="M147.705 24.6383L70.3149 42.7932L74.3373 63.2895L151.727 45.1346L147.705 24.6383Z" fill="url(#paint1_linear)"/>
<path d="M105.078 13.6968C99.1033 15.1 95.323 21.658 96.6374 28.3432C97.9518 35.0284 103.857 39.3185 109.82 37.9153C115.783 36.5121 119.575 29.9541 118.261 23.2689C116.947 16.5837 111.053 12.2936 105.078 13.6968ZM108.828 32.8155C107.565 33.1448 106.241 33.0555 105.025 32.5591C103.809 32.0627 102.755 31.1816 101.999 30.0281C101.242 28.8747 100.817 27.5011 100.777 26.0824C100.737 24.6637 101.085 23.2641 101.775 22.0622C102.466 20.8602 103.468 19.9101 104.654 19.3332C105.84 18.7562 107.156 18.5784 108.435 18.8224C109.714 19.0664 110.897 19.7213 111.835 20.7034C112.772 21.6855 113.42 22.9505 113.697 24.3372C113.889 25.2436 113.915 26.1824 113.774 27.0998C113.632 28.0172 113.326 28.895 112.874 29.6828C112.421 30.4706 111.831 31.1529 111.137 31.6905C110.442 32.2282 109.658 32.6105 108.828 32.8155Z" fill="url(#paint2_linear)"/>
<path d="M146.717 23.9504L70.9575 41.7229L74.8025 61.3156L150.562 43.5431L146.717 23.9504Z" fill="#219653"/>
<path d="M105.078 13.6968C102.984 14.1882 101.07 15.3475 99.5788 17.028C98.0874 18.7086 97.0852 20.835 96.699 23.1383C96.3128 25.4416 96.56 27.8184 97.4092 29.9681C98.2585 32.1178 99.6718 33.9439 101.47 35.2155C103.269 36.4871 105.372 37.147 107.513 37.1119C109.655 37.0767 111.739 36.3481 113.501 35.0181C115.264 33.6881 116.627 31.8164 117.417 29.6398C118.207 27.4632 118.388 25.0794 117.939 22.7898C117.641 21.2694 117.072 19.8282 116.264 18.5484C115.456 17.2685 114.426 16.1752 113.231 15.3308C112.037 14.4865 110.702 13.9075 109.303 13.6272C107.904 13.3468 106.469 13.3704 105.078 13.6968ZM108.661 31.9676C107.452 32.2512 106.194 32.1365 105.045 31.6381C103.895 31.1396 102.907 30.2798 102.205 29.1673C101.503 28.0548 101.119 26.7397 101.1 25.3883C101.082 24.0368 101.43 22.7097 102.101 21.5748C102.773 20.4399 103.737 19.5482 104.872 19.0124C106.007 18.4766 107.262 18.3209 108.478 18.5648C109.694 18.8088 110.816 19.4415 111.703 20.3829C112.59 21.3244 113.202 22.5323 113.461 23.8538C113.808 25.6257 113.498 27.4759 112.598 28.9975C111.697 30.5191 110.281 31.5875 108.661 31.9676Z" fill="#219653"/>
<path d="M269.437 49.5603H99.9917V305.531H269.437V49.5603Z" fill="#E0E0E0"/>
<g opacity="0.5">
<path opacity="0.5" d="M266.576 53.8884H102.857V301.207H266.576V53.8884Z" fill="url(#paint3_linear)"/>
</g>
<path d="M264.49 55.7114H104.939V297.566H264.49V55.7114Z" fill="white"/>
<path d="M224.499 45.2236H145.348V66.1864H224.499V45.2236Z" fill="url(#paint4_linear)"/>
<path d="M184.924 24.761C178.813 24.761 173.858 30.3058 173.858 37.1479C173.858 43.9899 178.813 49.5348 184.924 49.5348C191.034 49.5348 195.99 43.9899 195.99 37.1479C195.99 30.3058 191.034 24.761 184.924 24.761ZM184.924 44.2952C183.625 44.3289 182.346 43.9385 181.251 43.1739C180.155 42.4094 179.293 41.3052 178.775 40.0026C178.256 38.6999 178.104 37.2578 178.339 35.8604C178.573 34.463 179.183 33.1737 180.091 32.1571C180.999 31.1405 182.163 30.4427 183.435 30.1529C184.707 29.8631 186.03 29.9944 187.233 30.53C188.437 31.0656 189.467 31.9813 190.192 33.16C190.918 34.3388 191.305 35.7272 191.306 37.1479C191.318 39.0152 190.654 40.8118 189.458 42.1449C188.262 43.478 186.631 44.2389 184.924 44.2613V44.2952Z" fill="url(#paint5_linear)"/>
<path d="M223.665 44.325H146.182V64.3636H223.665V44.325Z" fill="#219653"/>
<path d="M184.924 24.761C182.782 24.761 180.688 25.4554 178.907 26.7564C177.126 28.0574 175.738 29.9066 174.919 32.07C174.099 34.2335 173.884 36.6142 174.302 38.9109C174.72 41.2077 175.752 43.3174 177.266 44.9732C178.781 46.6291 180.71 47.7567 182.811 48.2136C184.911 48.6704 187.089 48.436 189.068 47.5398C191.046 46.6437 192.738 45.1261 193.928 43.179C195.118 41.2319 195.753 38.9428 195.753 36.601C195.753 33.4609 194.612 30.4493 192.581 28.2289C190.55 26.0084 187.796 24.761 184.924 24.761ZM184.924 43.4346C183.688 43.4329 182.481 43.0312 181.455 42.28C180.428 41.5288 179.628 40.462 179.156 39.2142C178.684 37.9663 178.56 36.5935 178.801 35.2689C179.042 33.9444 179.636 32.7275 180.509 31.772C181.382 30.8165 182.494 30.1651 183.705 29.9002C184.916 29.6353 186.172 29.7687 187.314 30.2836C188.456 30.7985 189.433 31.6717 190.121 32.7931C190.809 33.9144 191.178 35.2336 191.181 36.5841C191.181 37.4818 191.019 38.3707 190.704 39.1998C190.389 40.029 189.928 40.7822 189.347 41.4164C188.766 42.0506 188.076 42.5534 187.317 42.8961C186.558 43.2387 185.745 43.4145 184.924 43.4134V43.4346Z" fill="#219653"/>
<g opacity="0.5">
<path opacity="0.5" d="M7.37827 312.449H5.92041V321.491H7.37827V312.449Z" fill="#47E6B1"/>
<path opacity="0.5" d="M10.7861 317.77V316.176H2.51589V317.77H10.7861Z" fill="#47E6B1"/>
</g>
<g opacity="0.5">
<path opacity="0.5" d="M176.514 0H175.056V9.04219H176.514V0Z" fill="#47E6B1"/>
<path opacity="0.5" d="M179.922 5.31608V3.72217L171.652 3.72217V5.31608H179.922Z" fill="#47E6B1"/>
</g>
<path opacity="0.5" d="M298.97 327.503C298.568 327.311 298.244 326.965 298.061 326.53C297.877 326.094 297.846 325.6 297.974 325.142C297.994 325.071 298.007 324.999 298.012 324.925C298.024 324.715 297.973 324.507 297.868 324.331C297.763 324.155 297.609 324.02 297.428 323.948C297.248 323.875 297.051 323.868 296.866 323.927C296.681 323.986 296.519 324.109 296.403 324.277C296.363 324.336 296.329 324.4 296.303 324.468C296.127 324.907 295.811 325.261 295.413 325.462C295.014 325.663 294.562 325.697 294.143 325.557C294.079 325.534 294.012 325.52 293.945 325.515C293.753 325.502 293.562 325.557 293.401 325.672C293.24 325.787 293.117 325.956 293.051 326.153C292.984 326.351 292.978 326.566 293.032 326.768C293.086 326.97 293.198 327.147 293.352 327.274C293.406 327.318 293.464 327.355 293.526 327.384C293.929 327.575 294.252 327.922 294.436 328.357C294.62 328.793 294.651 329.287 294.523 329.745C294.502 329.815 294.489 329.888 294.484 329.962C294.473 330.171 294.523 330.38 294.628 330.556C294.734 330.732 294.888 330.866 295.068 330.939C295.249 331.012 295.446 331.019 295.631 330.96C295.815 330.901 295.977 330.778 296.093 330.61C296.133 330.551 296.167 330.487 296.194 330.419C296.369 329.98 296.686 329.626 297.084 329.425C297.482 329.224 297.934 329.19 298.354 329.33C298.418 329.352 298.484 329.367 298.551 329.372C298.743 329.385 298.934 329.33 299.095 329.215C299.256 329.1 299.379 328.931 299.446 328.734C299.512 328.536 299.519 328.321 299.465 328.119C299.41 327.917 299.298 327.74 299.145 327.613C299.091 327.569 299.032 327.532 298.97 327.503Z" fill="#4D8AF0"/>
<path opacity="0.5" d="M52.9911 240.574C52.589 240.383 52.2653 240.036 52.0815 239.601C51.8978 239.166 51.8669 238.672 51.9946 238.213C52.0153 238.143 52.0283 238.07 52.0334 237.997C52.045 237.787 51.9944 237.578 51.8892 237.402C51.784 237.226 51.6297 237.092 51.4492 237.019C51.2687 236.946 51.0716 236.939 50.887 236.998C50.7024 237.057 50.5402 237.18 50.4243 237.348C50.384 237.407 50.3502 237.471 50.3235 237.539C50.1485 237.978 49.8317 238.332 49.4335 238.533C49.0353 238.734 48.5834 238.768 48.1639 238.628C48.0997 238.606 48.0333 238.592 47.9661 238.586C47.7741 238.573 47.5834 238.629 47.4224 238.744C47.2613 238.859 47.1384 239.027 47.0719 239.225C47.0053 239.422 46.9987 239.638 47.0529 239.839C47.1071 240.041 47.2193 240.218 47.3729 240.345C47.4269 240.389 47.4855 240.426 47.5474 240.455C47.9495 240.647 48.2732 240.993 48.457 241.428C48.6407 241.864 48.6716 242.358 48.5438 242.817C48.5232 242.887 48.5102 242.959 48.5051 243.033C48.4935 243.243 48.5441 243.451 48.6493 243.627C48.7545 243.803 48.9088 243.938 49.0893 244.01C49.2698 244.083 49.4669 244.091 49.6515 244.031C49.8361 243.972 49.9983 243.849 50.1142 243.681C50.1545 243.622 50.1883 243.558 50.215 243.491C50.39 243.051 50.7068 242.697 51.105 242.496C51.5032 242.295 51.9551 242.261 52.3746 242.401C52.4388 242.424 52.5051 242.438 52.5724 242.444C52.7644 242.456 52.955 242.401 53.1161 242.286C53.2771 242.171 53.4 242.002 53.4666 241.805C53.5331 241.607 53.5398 241.392 53.4856 241.19C53.4314 240.988 53.3192 240.811 53.1656 240.684C53.1116 240.64 53.053 240.603 52.9911 240.574Z" fill="#FDD835"/>
<path opacity="0.5" d="M257.871 28.9027C257.469 28.7113 257.145 28.365 256.961 27.9296C256.778 27.4942 256.747 27.0001 256.875 26.5415C256.895 26.4713 256.908 26.3987 256.913 26.3253C256.925 26.1153 256.874 25.9069 256.769 25.7308C256.664 25.5547 256.51 25.4203 256.329 25.3476C256.149 25.2748 255.951 25.2675 255.767 25.3268C255.582 25.3861 255.42 25.5087 255.304 25.6767C255.264 25.7357 255.23 25.7997 255.203 25.8674C255.028 26.3071 254.712 26.661 254.313 26.8619C253.915 27.0628 253.463 27.0966 253.044 26.9569C252.98 26.9343 252.913 26.9201 252.846 26.9145C252.654 26.9019 252.463 26.9571 252.302 27.0722C252.141 27.1872 252.018 27.3559 251.952 27.5532C251.885 27.7506 251.879 27.9661 251.933 28.1679C251.987 28.3697 252.099 28.5471 252.253 28.6738C252.307 28.7178 252.365 28.7548 252.427 28.784C252.829 28.9754 253.153 29.3217 253.337 29.7571C253.521 30.1925 253.552 30.6865 253.424 31.1452C253.403 31.2154 253.39 31.2879 253.385 31.3614C253.373 31.5714 253.424 31.7798 253.529 31.9559C253.634 32.132 253.789 32.2663 253.969 32.3391C254.15 32.4119 254.347 32.4191 254.531 32.3599C254.716 32.3006 254.878 32.1779 254.994 32.01C255.034 31.951 255.068 31.8869 255.095 31.8192C255.27 31.3796 255.587 31.0257 255.985 30.8248C256.383 30.6239 256.835 30.5901 257.254 30.7298C257.319 30.7523 257.385 30.7665 257.452 30.7722C257.644 30.7848 257.835 30.7295 257.996 30.6145C258.157 30.4994 258.28 30.3308 258.346 30.1334C258.413 29.9361 258.42 29.7205 258.365 29.5187C258.311 29.3169 258.199 29.1396 258.045 29.0129C257.991 28.9688 257.933 28.9318 257.871 28.9027Z" fill="#FDD835"/>
<path opacity="0.5" d="M315.084 136.502C316.697 136.502 318.004 135.073 318.004 133.31C318.004 131.547 316.697 130.118 315.084 130.118C313.472 130.118 312.165 131.547 312.165 133.31C312.165 135.073 313.472 136.502 315.084 136.502Z" fill="#F55F44"/>
<path opacity="0.5" d="M89.4606 319.711C91.0731 319.711 92.3802 318.282 92.3802 316.519C92.3802 314.756 91.0731 313.327 89.4606 313.327C87.8482 313.327 86.541 314.756 86.541 316.519C86.541 318.282 87.8482 319.711 89.4606 319.711Z" fill="#F55F44"/>
<path opacity="0.5" d="M285.101 205.499C286.714 205.499 288.021 204.07 288.021 202.307C288.021 200.544 286.714 199.115 285.101 199.115C283.489 199.115 282.182 200.544 282.182 202.307C282.182 204.07 283.489 205.499 285.101 205.499Z" fill="#F55F44"/>
<path opacity="0.5" d="M33.7868 44.0366C35.3992 44.0366 36.7064 42.6074 36.7064 40.8444C36.7064 39.0815 35.3992 37.6523 33.7868 37.6523C32.1743 37.6523 30.8672 39.0815 30.8672 40.8444C30.8672 42.6074 32.1743 44.0366 33.7868 44.0366Z" fill="#4D8AF0"/>
<path opacity="0.5" d="M2.9196 131.114C4.53205 131.114 5.8392 129.685 5.8392 127.922C5.8392 126.159 4.53205 124.729 2.9196 124.729C1.30715 124.729 0 126.159 0 127.922C0 129.685 1.30715 131.114 2.9196 131.114Z" fill="#47E6B1"/>
</g>
<defs>
<linearGradient id="paint0_linear" x1="157.923" y1="284.05" x2="101.679" y2="44.2973" gradientUnits="userSpaceOnUse">
<stop stop-color="#808080" stop-opacity="0.25"/>
<stop offset="0.54" stop-color="#808080" stop-opacity="0.12"/>
<stop offset="1" stop-color="#808080" stop-opacity="0.1"/>
</linearGradient>
<linearGradient id="paint1_linear" x1="42575.1" y1="-6061.57" x2="42339.4" y2="-7066.47" gradientUnits="userSpaceOnUse">
<stop stop-color="#808080" stop-opacity="0.25"/>
<stop offset="0.54" stop-color="#808080" stop-opacity="0.12"/>
<stop offset="1" stop-color="#808080" stop-opacity="0.1"/>
</linearGradient>
<linearGradient id="paint2_linear" x1="12432.1" y1="691.398" x2="12103.2" y2="-710.524" gradientUnits="userSpaceOnUse">
<stop stop-color="#808080" stop-opacity="0.25"/>
<stop offset="0.54" stop-color="#808080" stop-opacity="0.12"/>
<stop offset="1" stop-color="#808080" stop-opacity="0.1"/>
</linearGradient>
<linearGradient id="paint3_linear" x1="78098.4" y1="175781" x2="78098.4" y2="31493" gradientUnits="userSpaceOnUse">
<stop stop-color="#808080" stop-opacity="0.25"/>
<stop offset="0.54" stop-color="#808080" stop-opacity="0.12"/>
<stop offset="1" stop-color="#808080" stop-opacity="0.1"/>
</linearGradient>
<linearGradient id="paint4_linear" x1="37895.6" y1="3318.14" x2="37895.6" y2="2281.53" gradientUnits="userSpaceOnUse">
<stop stop-color="#808080" stop-opacity="0.25"/>
<stop offset="0.54" stop-color="#808080" stop-opacity="0.12"/>
<stop offset="1" stop-color="#808080" stop-opacity="0.1"/>
</linearGradient>
<linearGradient id="paint5_linear" x1="14932.5" y1="4394.61" x2="14932.5" y2="2946.83" gradientUnits="userSpaceOnUse">
<stop stop-color="#808080" stop-opacity="0.25"/>
<stop offset="0.54" stop-color="#808080" stop-opacity="0.12"/>
<stop offset="1" stop-color="#808080" stop-opacity="0.1"/>
</linearGradient>
<clipPath id="clip0">
<rect width="318" height="331" fill="white"/>
</clipPath>
</defs>
</svg>
