<svg width="30" height="30" viewBox="0 0 30 30" fill="none" xmlns="http://www.w3.org/2000/svg">
<path d="M23.357 12.5L28.662 4.783C28.767 4.63 28.7785 4.4315 28.6925 4.267C28.606 4.103 28.4355 4 28.25 4H13.25V2C13.25 1.7235 13.0265 1.5 12.75 1.5H2.25V0.5C2.25 0.2235 2.0265 0 1.75 0C1.4735 0 1.25 0.2235 1.25 0.5V2V16.5V29.5C1.25 29.7765 1.4735 30 1.75 30C2.0265 30 2.25 29.7765 2.25 29.5V17H7.763C7.4455 17.419 7.25 17.935 7.25 18.5C7.25 19.8785 8.3715 21 9.75 21H28.25C28.4355 21 28.606 20.897 28.6925 20.733C28.779 20.5685 28.767 20.3695 28.662 20.217L23.357 12.5ZM2.25 2.5H12.25V4.5V16H9.75H2.25V2.5ZM9.75 20C8.923 20 8.25 19.327 8.25 18.5C8.25 17.673 8.923 17 9.75 17H12.75C13.0265 17 13.25 16.7765 13.25 16.5V5H27.2995L22.338 12.217C22.221 12.3875 22.221 12.613 22.338 12.7835L27.2995 20H9.75Z" fill="#DC4E41"/>
</svg>
